<?xml version="1.0" encoding="UTF-8"?>
<svg version="1.1" xmlns="http://www.w3.org/2000/svg" width="270" height="251">
<path d="M0 0 C0.83298111 -0.00807175 1.66596222 -0.01614349 2.52418518 -0.02445984 C4.27464781 -0.03820073 6.02513611 -0.04896688 7.77563477 -0.05688477 C9.5511063 -0.06842964 11.32654245 -0.08892093 13.10180664 -0.1184082 C33.43928727 -0.45526478 33.43928727 -0.45526478 41.125 6.02734375 C44.40357713 10.59984004 45.87626812 14.55597766 46.6796875 20.13671875 C46.90223459 22.28961315 46.90223459 22.28961315 48.00390625 24.23828125 C48.04387998 25.87720414 48.01577765 27.51803732 47.953125 29.15625 C47.91501709 30.1563208 47.87690918 31.1563916 47.83764648 32.18676758 C47.78938721 33.25564209 47.74112793 34.3245166 47.69140625 35.42578125 C47.64508057 36.51334717 47.59875488 37.60091309 47.55102539 38.72143555 C47.2137197 45.81327457 46.58661129 52.72193674 45.40625 59.7265625 C44.14744833 70.71357902 46.08805702 80.57426412 48.50390625 91.23828125 C50.63344212 100.63845686 52.54724735 109.52713714 52.00390625 119.23828125 C51.63410612 123.28450627 51.63410612 123.28450627 54.00390625 126.23828125 C54.50647373 130.86190209 53.86621317 133.55817235 51.00390625 137.23828125 C48.35136658 139.32241956 46.99030008 139.23778648 43.56640625 139.11328125 C39.6165387 138.14313834 37.74911495 137.22571425 35.00390625 134.23828125 C33.63319395 130.29748338 33.79531534 128.72801642 35.44140625 124.86328125 C35.95703125 123.99703125 36.47265625 123.13078125 37.00390625 122.23828125 C36.34390625 122.23828125 35.68390625 122.23828125 35.00390625 122.23828125 C34.69453125 122.85703125 34.38515625 123.47578125 34.06640625 124.11328125 C33.37890625 125.48828125 32.69140625 126.86328125 32.00390625 128.23828125 C31.34390625 128.23828125 30.68390625 128.23828125 30.00390625 128.23828125 C29.67390625 132.19828125 29.34390625 136.15828125 29.00390625 140.23828125 C28.34390625 140.23828125 27.68390625 140.23828125 27.00390625 140.23828125 C26.78476563 141.20765625 26.565625 142.17703125 26.33984375 143.17578125 C23.99693327 153.20996233 20.90379909 162.70546903 17.00390625 172.23828125 C16.73707031 172.89296387 16.47023437 173.54764648 16.1953125 174.22216797 C9.4182471 190.66627941 1.42416353 205.4601768 -9.61230469 219.44262695 C-11.03222186 221.28516238 -12.3781075 223.16676663 -13.71484375 225.0703125 C-17.92436414 230.9160677 -24.01710786 234.3796386 -29.99609375 238.23828125 C-30.78242188 238.7590625 -31.56875 239.27984375 -32.37890625 239.81640625 C-47.70138434 249.57155307 -65.36881667 252.00760919 -82.99609375 248.23828125 C-107.87495847 242.41569823 -128.83803594 228.56371633 -147.484375 211.52734375 C-149.17599695 209.98567896 -150.88215026 208.45982681 -152.6015625 206.94921875 C-157.83848542 202.33819131 -162.54633705 197.60609302 -166.99609375 192.23828125 C-167.82496094 191.26246094 -168.65382812 190.28664062 -169.5078125 189.28125 C-173.62125332 184.4160269 -177.4771799 179.55809534 -180.99609375 174.23828125 C-181.98609375 173.24828125 -181.98609375 173.24828125 -182.99609375 172.23828125 C-184.02770983 170.25440417 -185.03132993 168.25551469 -185.99609375 166.23828125 C-186.92421875 167.44484375 -186.92421875 167.44484375 -187.87109375 168.67578125 C-190.00436247 171.24825236 -190.74145226 172.08792146 -193.984375 172.4765625 C-197.71540124 172.59570451 -200.41461381 172.49109861 -203.87109375 170.98828125 C-209.74481741 163.38699181 -210.10590524 150.67742294 -211.68359375 141.42578125 C-211.90853516 140.15541016 -212.13347656 138.88503906 -212.36523438 137.57617188 C-212.57728516 136.34447266 -212.78933594 135.11277344 -213.0078125 133.84375 C-213.19819092 132.74184326 -213.38856934 131.63993652 -213.5847168 130.50463867 C-214.21797158 125.47655808 -214.66896046 121.58401466 -212.37109375 116.98828125 C-209.99609375 114.23828125 -209.99609375 114.23828125 -206.94921875 113.00390625 C-203.70097227 111.49184099 -203.70097227 111.49184099 -202.89453125 108.05078125 C-202.72179687 106.79265625 -202.5490625 105.53453125 -202.37109375 104.23828125 C-198.85489577 82.5995419 -187.25509316 65.82347328 -169.8203125 52.765625 C-166.9364454 50.80272222 -164.00301852 49.00615229 -160.99609375 47.23828125 C-159.82347326 46.49933306 -158.65299762 45.75697334 -157.484375 45.01171875 C-149.28175722 39.84434026 -140.89074068 35.69063531 -131.92089844 32.02929688 C-130.12716099 31.2921445 -128.34616756 30.52419019 -126.56640625 29.75390625 C-94.89023019 16.39388641 -60.1975916 9.4686434 -26.55859375 2.98828125 C-25.71240479 2.82497314 -24.86621582 2.66166504 -23.99438477 2.4934082 C-23.19186279 2.34218506 -22.38934082 2.19096191 -21.5625 2.03515625 C-20.5252478 1.83937988 -20.5252478 1.83937988 -19.46704102 1.63964844 C-12.94028306 0.5794775 -6.60325114 0.06225199 0 0 Z M35.00390625 62.23828125 C34.34390625 63.55828125 33.68390625 64.87828125 33.00390625 66.23828125 C32.34390625 65.24828125 31.68390625 64.25828125 31.00390625 63.23828125 C30.75008933 71.0365872 31.59722779 78.63364299 32.5480957 86.35717773 C32.81442971 88.53462182 33.06688441 90.71337425 33.31835938 92.89257812 C34.25810938 106.75589346 34.25810938 106.75589346 39.44067383 119.0715332 C41.02284369 120.51814297 41.02284369 120.51814297 43.56640625 120.05078125 C46.14831897 119.39201092 46.14831897 119.39201092 48.00390625 117.23828125 C48.40658711 111.78892587 47.5010423 106.8459615 46.359375 101.55859375 C46.18892166 100.74639374 46.01846832 99.93419373 45.84284973 99.09738159 C45.48221923 97.38727813 45.11811953 95.67790295 44.75073242 93.96923828 C44.19495273 91.37980466 43.65232583 88.78786993 43.11132812 86.1953125 C42.75729412 84.52457332 42.40250084 82.85399482 42.046875 81.18359375 C41.88736862 80.42080109 41.72786224 79.65800842 41.56352234 78.87210083 C40.41904916 73.59468975 39.20618807 68.18637981 37.00390625 63.23828125 C36.34390625 62.90828125 35.68390625 62.57828125 35.00390625 62.23828125 Z M-30.99609375 71.23828125 C-30.33609375 71.56828125 -29.67609375 71.89828125 -28.99609375 72.23828125 C-29.33382812 72.75777344 -29.6715625 73.27726562 -30.01953125 73.8125 C-32.39501076 77.52676132 -34.5537219 81.0422904 -35.99609375 85.23828125 C-36.65609375 83.91828125 -37.31609375 82.59828125 -37.99609375 81.23828125 C-42.08663022 101.6424354 -42.08663022 101.6424354 -44.99609375 122.23828125 C-45.65609375 122.23828125 -46.31609375 122.23828125 -46.99609375 122.23828125 C-47.08375 121.45195313 -47.17140625 120.665625 -47.26171875 119.85546875 C-48.22458772 115.1128269 -49.93671559 110.84016177 -51.74609375 106.36328125 C-52.24882812 105.07357422 -52.24882812 105.07357422 -52.76171875 103.7578125 C-55.30007391 97.42153959 -58.113412 91.120963 -62.99609375 86.23828125 C-65.10430172 86.55679895 -65.10430172 86.55679895 -66.99609375 87.23828125 C-66.66609375 87.56828125 -66.33609375 87.89828125 -65.99609375 88.23828125 C-66.77984375 88.96015625 -67.56359375 89.68203125 -68.37109375 90.42578125 C-70.86996338 93.10314157 -71.78182384 94.87568765 -72.99609375 98.23828125 C-73.65609375 98.56828125 -74.31609375 98.89828125 -74.99609375 99.23828125 C-75.32609375 98.57828125 -75.65609375 97.91828125 -75.99609375 97.23828125 C-78.36480295 109.94588467 -80.04802001 122.22929284 -80.24609375 135.17578125 C-80.26760498 136.00577637 -80.28911621 136.83577148 -80.3112793 137.69091797 C-80.35571696 142.47686896 -80.35571696 142.47686896 -78.48046875 146.8046875 C-77.74570313 147.51431641 -77.74570313 147.51431641 -76.99609375 148.23828125 C-74.57342289 148.28995652 -74.57342289 148.28995652 -71.99609375 147.23828125 C-68.4961144 140.89456868 -67.5835036 133.86093156 -66.30859375 126.80078125 C-66.08365234 125.59228516 -65.85871094 124.38378906 -65.62695312 123.13867188 C-65.07604404 120.17313998 -64.53266067 117.20643569 -63.99609375 114.23828125 C-60.58693407 122.2562948 -57.44362795 130.31169761 -54.59179688 138.54296875 C-52.89854317 143.27629404 -51.15168011 147.29533611 -47.99609375 151.23828125 C-44.55800953 152.6464253 -44.55800953 152.6464253 -40.99609375 152.23828125 C-37.2011875 148.54103803 -36.29314829 145.33041684 -35.49609375 140.17578125 C-35.38354248 139.4684082 -35.27099121 138.76103516 -35.1550293 138.03222656 C-34.74993069 135.43678493 -34.37311811 132.83794981 -33.99609375 130.23828125 C-33.63804967 127.84895401 -33.27997468 125.45963141 -32.921875 123.0703125 C-32.19356245 118.13287549 -31.46764894 113.19515387 -30.765625 108.25390625 C-30.61714111 107.21524414 -30.46865723 106.17658203 -30.31567383 105.10644531 C-30.02001107 102.45293415 -29.93570911 99.90501422 -29.99609375 97.23828125 C-29.33609375 97.23828125 -28.67609375 97.23828125 -27.99609375 97.23828125 C-27.90972656 98.39972656 -27.82335937 99.56117187 -27.734375 100.7578125 C-27.00873626 107.25043653 -25.35552998 113.52165862 -23.72241211 119.83227539 C-23.18282945 121.92875083 -22.66237234 124.02940212 -22.14257812 126.13085938 C-21.79672662 127.48336846 -21.44975954 128.83559287 -21.1015625 130.1875 C-20.63979614 132.00254028 -20.63979614 132.00254028 -20.16870117 133.85424805 C-18.80784302 137.78155491 -16.9662136 141.2681614 -13.99609375 144.23828125 C-10.10231496 144.76925108 -8.40460192 144.49903115 -5.05859375 142.36328125 C-2.04422155 137.79605064 -3.06692701 134.48912498 -3.99609375 129.23828125 C-5.21830554 123.88161574 -6.64472458 118.59222462 -8.12109375 113.30078125 C-8.4225531 112.20969055 -8.4225531 112.20969055 -8.73010254 111.09655762 C-11.16261827 102.31582805 -13.67172147 93.56981274 -16.74609375 84.98828125 C-17.13112061 83.88432007 -17.13112061 83.88432007 -17.52392578 82.75805664 C-19.22836997 78.24696103 -21.39163002 75.41307381 -24.99609375 72.23828125 C-25.49109375 71.74328125 -25.49109375 71.74328125 -25.99609375 71.23828125 C-27.6622649 71.19764293 -29.3299747 71.19556025 -30.99609375 71.23828125 Z M-36.99609375 79.23828125 C-35.99609375 81.23828125 -35.99609375 81.23828125 -35.99609375 81.23828125 Z M6.19140625 81.48828125 C5.53317871 81.69275879 4.87495117 81.89723633 4.19677734 82.10791016 C0.3086871 83.42992079 -1.92819095 84.64059163 -3.99609375 88.23828125 C-3.03703125 88.88796875 -3.03703125 88.88796875 -2.05859375 89.55078125 C0.00390625 91.23828125 0.00390625 91.23828125 1.00390625 94.23828125 C7.55239938 93.07623132 13.74928769 91.5044474 20.00390625 89.23828125 C20.12765625 87.93890625 20.25140625 86.63953125 20.37890625 85.30078125 C20.58984375 83.0859375 20.58984375 83.0859375 21.00390625 81.23828125 C21.66390625 80.90828125 22.32390625 80.57828125 23.00390625 80.23828125 C21.86700261 78.89543709 21.86700261 78.89543709 18.87890625 78.86328125 C14.43477882 78.91185095 10.3884123 80.1369763 6.19140625 81.48828125 Z M23.00390625 81.23828125 C23.00390625 82.88828125 23.00390625 84.53828125 23.00390625 86.23828125 C23.66390625 85.24828125 24.32390625 84.25828125 25.00390625 83.23828125 C24.34390625 82.57828125 23.68390625 81.91828125 23.00390625 81.23828125 Z M-4.99609375 88.23828125 C-3.99609375 91.23828125 -3.99609375 91.23828125 -3.99609375 91.23828125 Z M-72.99609375 89.23828125 C-71.99609375 91.23828125 -71.99609375 91.23828125 -71.99609375 91.23828125 Z M-73.99609375 91.23828125 C-72.99609375 93.23828125 -72.99609375 93.23828125 -72.99609375 93.23828125 Z M-3.99609375 91.23828125 C-2.99609375 93.23828125 -2.99609375 93.23828125 -2.99609375 93.23828125 Z M-74.99609375 94.23828125 C-73.99609375 96.23828125 -73.99609375 96.23828125 -73.99609375 96.23828125 Z M-97.99609375 95.23828125 C-98.65609375 95.89828125 -99.31609375 96.55828125 -99.99609375 97.23828125 C-99.33609375 97.56828125 -98.67609375 97.89828125 -97.99609375 98.23828125 C-98.49109375 99.02203125 -98.98609375 99.80578125 -99.49609375 100.61328125 C-101.1614734 103.02380452 -101.1614734 103.02380452 -100.99609375 105.23828125 C-101.65609375 105.23828125 -102.31609375 105.23828125 -102.99609375 105.23828125 C-103.32609375 104.57828125 -103.65609375 103.91828125 -103.99609375 103.23828125 C-105.31609375 105.87828125 -106.63609375 108.51828125 -107.99609375 111.23828125 C-108.29902344 110.66078125 -108.60195312 110.08328125 -108.9140625 109.48828125 C-110.16523881 107.27081185 -111.4005208 105.22407585 -112.99609375 103.23828125 C-115.62852048 102.40286271 -115.62852048 102.40286271 -117.99609375 103.23828125 C-120.15668461 104.9973368 -120.15668461 104.9973368 -120.26171875 107.13671875 C-120.22080814 113.62104988 -119.73238332 120.03669806 -119.12109375 126.48828125 C-119.0427832 127.3395459 -118.96447266 128.19081055 -118.88378906 129.06787109 C-118.04419377 137.5173201 -118.04419377 137.5173201 -114.74609375 145.23828125 C-112.88820691 146.5054296 -112.88820691 146.5054296 -109.93359375 146.11328125 C-106.7035396 145.49177712 -106.7035396 145.49177712 -104.99609375 142.23828125 C-104.60221587 139.91440178 -104.2612329 137.58034376 -103.99609375 135.23828125 C-103.33609375 135.23828125 -102.67609375 135.23828125 -101.99609375 135.23828125 C-100.24695703 137.66698122 -98.60496336 140.09425112 -96.99609375 142.61328125 C-96.10228714 143.99740463 -95.20653343 145.38027309 -94.30859375 146.76171875 C-93.91285156 147.37966309 -93.51710938 147.99760742 -93.109375 148.63427734 C-91.95740936 150.39544444 -91.95740936 150.39544444 -89.99609375 152.23828125 C-87.39328807 151.91786728 -87.39328807 151.91786728 -84.99609375 151.23828125 C-83.39701677 146.83212891 -84.53158932 144.19440494 -86.39868164 140.15917969 C-86.76082764 139.4221582 -87.12297363 138.68513672 -87.49609375 137.92578125 C-87.85759521 137.1668457 -88.21909668 136.40791016 -88.59155273 135.62597656 C-91.04153619 130.66509403 -93.69683101 126.61748529 -97.84375 122.87890625 C-98.99609375 121.23828125 -98.99609375 121.23828125 -98.875 118.97265625 C-97.5860463 114.96257808 -95.81571598 111.20309549 -93.9921875 107.41015625 C-92.27236511 103.62490123 -91.53764936 101.20298444 -92.99609375 97.23828125 C-93.65609375 96.57828125 -94.31609375 95.91828125 -94.99609375 95.23828125 C-95.98609375 95.23828125 -96.97609375 95.23828125 -97.99609375 95.23828125 Z M9.44140625 101.11328125 C7.76884766 101.63535156 7.76884766 101.63535156 6.0625 102.16796875 C3.5693101 103.04042601 1.31921817 103.98155938 -0.99609375 105.23828125 C-0.02827511 107.32694877 -0.02827511 107.32694877 1.56640625 109.30078125 C3.00390625 111.23828125 3.00390625 111.23828125 3.00390625 112.23828125 C9.44071853 111.72742313 14.96333049 110.50885228 21.00390625 108.23828125 C20.67390625 107.57828125 20.34390625 106.91828125 20.00390625 106.23828125 C20.28632508 103.89823955 20.61641412 101.56323402 21.00390625 99.23828125 C16.79108566 99.00204832 13.4490412 99.84086876 9.44140625 101.11328125 Z M23.00390625 102.23828125 C24.00390625 106.23828125 24.00390625 106.23828125 24.00390625 106.23828125 Z M-141.99609375 108.23828125 C-141.66609375 109.22828125 -141.33609375 110.21828125 -140.99609375 111.23828125 C-141.57359375 111.48578125 -142.15109375 111.73328125 -142.74609375 111.98828125 C-145.29639345 113.40511442 -147.01395076 115.11455662 -148.99609375 117.23828125 C-149.32609375 116.57828125 -149.65609375 115.91828125 -149.99609375 115.23828125 C-153.70214497 122.48925103 -155.23060575 130.17225829 -152.80859375 138.11328125 C-150.32128955 144.34264578 -147.09290358 147.74875642 -141.01171875 150.5078125 C-138.0938723 151.5652491 -136.06134708 151.77136879 -132.99609375 151.23828125 C-129.17504739 149.14045188 -126.20515787 147.04278057 -123.99609375 143.23828125 C-123.99609375 142.24828125 -123.99609375 141.25828125 -123.99609375 140.23828125 C-124.65609375 140.23828125 -125.31609375 140.23828125 -125.99609375 140.23828125 C-125.66609375 137.59828125 -125.33609375 134.95828125 -124.99609375 132.23828125 C-128.67030241 132.5444653 -129.77744888 132.99599909 -132.30859375 135.80078125 C-132.86546875 136.60515625 -133.42234375 137.40953125 -133.99609375 138.23828125 C-134.61484375 137.57828125 -135.23359375 136.91828125 -135.87109375 136.23828125 C-137.75246802 134.00982635 -137.75246802 134.00982635 -139.99609375 134.23828125 C-140.19182983 132.80187954 -140.37737191 131.36408621 -140.55859375 129.92578125 C-140.66300781 129.12527344 -140.76742187 128.32476562 -140.875 127.5 C-140.99609375 125.23828125 -140.99609375 125.23828125 -139.99609375 122.23828125 C-139.33609375 122.56828125 -138.67609375 122.89828125 -137.99609375 123.23828125 C-137.87234375 122.43390625 -137.74859375 121.62953125 -137.62109375 120.80078125 C-137.31171875 119.53234375 -137.31171875 119.53234375 -136.99609375 118.23828125 C-136.33609375 117.90828125 -135.67609375 117.57828125 -134.99609375 117.23828125 C-134.99609375 116.57828125 -134.99609375 115.91828125 -134.99609375 115.23828125 C-132.05859375 116.05078125 -132.05859375 116.05078125 -128.99609375 117.23828125 C-128.66609375 118.22828125 -128.33609375 119.21828125 -127.99609375 120.23828125 C-127.33609375 119.57828125 -126.67609375 118.91828125 -125.99609375 118.23828125 C-125.99609375 113.95544762 -126.72010354 112.52054396 -129.74609375 109.42578125 C-134.33439136 106.33750401 -137.1479561 105.18575014 -141.99609375 108.23828125 Z M-1.99609375 107.23828125 C-1.33609375 108.55828125 -0.67609375 109.87828125 0.00390625 111.23828125 C-0.32609375 109.91828125 -0.65609375 108.59828125 -0.99609375 107.23828125 C-1.32609375 107.23828125 -1.65609375 107.23828125 -1.99609375 107.23828125 Z M-165.99609375 113.23828125 C-168.4276998 116.6051204 -168.99609375 117.97178489 -168.99609375 122.23828125 C-169.65609375 122.23828125 -170.31609375 122.23828125 -170.99609375 122.23828125 C-170.99609375 120.25828125 -170.99609375 118.27828125 -170.99609375 116.23828125 C-171.32609375 116.23828125 -171.65609375 116.23828125 -171.99609375 116.23828125 C-172.12424597 122.39569011 -171.75492096 128.11696934 -170.68359375 134.17578125 C-170.54896729 134.95630859 -170.41434082 135.73683594 -170.27563477 136.54101562 C-168.88978923 146.69753302 -168.88978923 146.69753302 -163.99609375 155.23828125 C-161.45657831 155.14716187 -161.45657831 155.14716187 -158.99609375 154.23828125 C-154.48539641 147.47223524 -158.06096567 134.98178281 -159.37109375 127.17578125 C-159.48477295 126.47437012 -159.59845215 125.77295898 -159.71557617 125.05029297 C-160.5034057 120.67602831 -161.8319726 117.11314621 -163.99609375 113.23828125 C-164.65609375 113.23828125 -165.31609375 113.23828125 -165.99609375 113.23828125 Z M-148.99609375 113.23828125 C-147.99609375 115.23828125 -147.99609375 115.23828125 -147.99609375 115.23828125 Z M-203.99609375 116.23828125 C-204.87045793 117.97403774 -204.87045793 117.97403774 -204.99609375 120.23828125 C-205.18171875 121.47578125 -205.36734375 122.71328125 -205.55859375 123.98828125 C-205.77515625 125.59703125 -205.77515625 125.59703125 -205.99609375 127.23828125 C-206.65609375 127.23828125 -207.31609375 127.23828125 -207.99609375 127.23828125 C-207.99609375 124.92828125 -207.99609375 122.61828125 -207.99609375 120.23828125 C-209.99915234 123.04128336 -209.98154636 124.40306385 -209.67236328 127.90527344 C-209.4212561 129.36759481 -209.15591059 130.82751871 -208.87890625 132.28515625 C-208.74290009 133.05635803 -208.60689392 133.82755981 -208.46676636 134.62213135 C-208.03042755 137.07988793 -207.57603452 139.533907 -207.12109375 141.98828125 C-206.82172002 143.65603564 -206.52352885 145.32400276 -206.2265625 146.9921875 C-205.49676171 151.07681219 -204.75075442 155.15817958 -203.99609375 159.23828125 C-203.66609375 158.24828125 -203.33609375 157.25828125 -202.99609375 156.23828125 C-202.33609375 156.23828125 -201.67609375 156.23828125 -200.99609375 156.23828125 C-200.74859375 157.31078125 -200.50109375 158.38328125 -200.24609375 159.48828125 C-198.99726229 163.23477562 -197.97120717 164.75902007 -194.99609375 167.23828125 C-196.97609375 166.57828125 -198.95609375 165.91828125 -200.99609375 165.23828125 C-200.99609375 165.89828125 -200.99609375 166.55828125 -200.99609375 167.23828125 C-197.6415122 168.00350926 -197.6415122 168.00350926 -193.99609375 168.23828125 C-192.16752124 167.13402703 -192.16752124 167.13402703 -190.99609375 165.23828125 C-190.75393434 162.92582955 -190.75393434 162.92582955 -190.87109375 160.42578125 C-190.5597824 155.74934337 -190.5597824 155.74934337 -188.11328125 153.53125 C-186.51741293 152.57530907 -184.91019489 151.63809671 -183.29296875 150.71875 C-178.93236229 147.90808699 -176.77117318 143.96074774 -175.37109375 139.04296875 C-174.42294166 133.37380937 -175.15068917 128.26119802 -177.99609375 123.23828125 C-182.03153292 118.66245929 -186.65108341 114.63894819 -192.90234375 114.0625 C-196.95901991 113.91869991 -200.43903871 114.08249032 -203.99609375 116.23828125 Z M-170.99609375 114.23828125 C-169.99609375 116.23828125 -169.99609375 116.23828125 -169.99609375 116.23828125 Z M12.19140625 116.55078125 C11.5454248 116.7636377 10.89944336 116.97649414 10.23388672 117.19580078 C6.70400552 118.43066154 3.84632448 119.79680866 1.00390625 122.23828125 C2.29355801 123.61390979 3.63079918 124.94594518 5.00390625 126.23828125 C5.66390625 126.23828125 6.32390625 126.23828125 7.00390625 126.23828125 C7.00390625 126.89828125 7.00390625 127.55828125 7.00390625 128.23828125 C19.92356816 127.91502244 19.92356816 127.91502244 30.86328125 122.30078125 C32.33454812 120.20969303 32.33454812 120.20969303 31.25390625 117.55078125 C30.20162315 115.34072978 30.20162315 115.34072978 29.00390625 114.23828125 C22.91328227 113.6082167 17.97147334 114.63063763 12.19140625 116.55078125 Z M0.00390625 123.23828125 C1.00390625 126.23828125 1.00390625 126.23828125 1.00390625 126.23828125 Z M42.00390625 125.23828125 C42.66390625 127.54828125 43.32390625 129.85828125 44.00390625 132.23828125 C41.00390625 131.23828125 41.00390625 131.23828125 39.00390625 128.23828125 C39.33390625 129.88828125 39.66390625 131.53828125 40.00390625 133.23828125 C42.31390625 133.56828125 44.62390625 133.89828125 47.00390625 134.23828125 C48.74038573 132.56339597 48.74038573 132.56339597 50.00390625 130.23828125 C49.29433388 127.5042999 49.29433388 127.5042999 48.00390625 125.23828125 C46.02390625 125.23828125 44.04390625 125.23828125 42.00390625 125.23828125 Z M1.00390625 126.23828125 C1.00390625 126.89828125 1.00390625 127.55828125 1.00390625 128.23828125 C1.66390625 127.90828125 2.32390625 127.57828125 3.00390625 127.23828125 C2.34390625 126.90828125 1.68390625 126.57828125 1.00390625 126.23828125 Z M-138.99609375 129.23828125 C-137.99609375 132.23828125 -137.99609375 132.23828125 -137.99609375 132.23828125 Z M-123.99609375 133.23828125 C-122.99609375 135.23828125 -122.99609375 135.23828125 -122.99609375 135.23828125 Z M-123.99609375 138.23828125 C-122.99609375 140.23828125 -122.99609375 140.23828125 -122.99609375 140.23828125 Z M-202.99609375 160.23828125 C-202.66609375 161.88828125 -202.33609375 163.53828125 -201.99609375 165.23828125 C-201.66609375 164.57828125 -201.33609375 163.91828125 -200.99609375 163.23828125 C-201.65609375 162.24828125 -202.31609375 161.25828125 -202.99609375 160.23828125 Z " fill="#090909" transform="translate(214.99609375,-0.23828125)"/>
<path d="M0 0 C0.33 0 0.66 0 1 0 C1.99 4.62 2.98 9.24 4 14 C4.66 14 5.32 14 6 14 C6.433125 15.11375 6.86625 16.2275 7.3125 17.375 C8.69911119 21.17512334 8.69911119 21.17512334 12 23 C12 23.66 12 24.32 12 25 C10.35 24.67 8.7 24.34 7 24 C8.64079242 25.64079242 10.77768765 25.60112342 13 26 C11.02 26.99 11.02 26.99 9 28 C9.33 28.66 9.66 29.32 10 30 C6.43639258 29.75702677 4.48994893 29.42190047 1.75 27.0625 C-0.84276779 22.52515637 -2.55487009 17.07101367 -1.60546875 11.81640625 C-1 10 -1 10 0 8 C0.0689472 6.62657169 0.08467708 5.24997898 0.0625 3.875 C0.041875 2.59625 0.02125 1.3175 0 0 Z M4 18 C4.33 19.65 4.66 21.3 5 23 C5.33 22.34 5.66 21.68 6 21 C5.34 20.01 4.68 19.02 4 18 Z " fill="#393939" transform="translate(8,142)"/>
<path d="M0 0 C2.8590415 5.11994444 3.55829205 10.80570348 4.6875 16.5 C4.92533203 17.64082031 5.16316406 18.78164062 5.40820312 19.95703125 C5.62798828 21.05402344 5.84777344 22.15101562 6.07421875 23.28125 C6.27619873 24.28220703 6.47817871 25.28316406 6.6862793 26.31445312 C6.98987616 28.91333674 6.83325086 30.54655939 6 33 C5.34 32.67 4.68 32.34 4 32 C4 34.31 4 36.62 4 39 C3.34 38.67 2.68 38.34 2 38 C2.0515625 37.09507813 2.103125 36.19015625 2.15625 35.2578125 C2.15625 29.66752947 0.71704058 24.30234313 -0.5 18.875 C-0.97342391 16.74843097 -1.44234404 14.62085312 -1.90625 12.4921875 C-2.11572266 11.55745605 -2.32519531 10.62272461 -2.54101562 9.65966797 C-2.9917626 7.0477331 -3.08381477 4.64435597 -3 2 C-2.34 2 -1.68 2 -1 2 C-0.67 1.34 -0.34 0.68 0 0 Z " fill="#454546" transform="translate(260,79)"/>
<path d="M0 0 C3.01861375 0.24475247 4.7940397 0.86083764 7.3125 2.5625 C9.28687879 5.41438047 9.56607419 7.57789648 9.3984375 11.02734375 C8.77349547 14.12141949 7.25753227 15.87526375 5 18 C4.34 18 3.68 18 3 18 C2.30546362 15.18906522 1.61908651 12.376575 0.9375 9.5625 C0.63875977 8.35883789 0.63875977 8.35883789 0.33398438 7.13085938 C-0.15507375 5.09740718 -0.58257724 3.04935695 -1 1 C-0.67 0.67 -0.34 0.34 0 0 Z " fill="#3B3B3B" transform="translate(18,125)"/>
<path d="M0 0 C0.33 0 0.66 0 1 0 C1.32405231 4.64474974 0.88473323 7.29105728 -2 11 C-4.71437679 13.13272462 -6.04826833 12.99745956 -9.5625 12.8125 C-12.85979889 12.03313844 -14.03715497 11.65561386 -16 9 C-13.2889586 7.76066679 -11.38287654 6.99088389 -8.375 7.0625 C-5.91978234 7.2531692 -5.91978234 7.2531692 -4.3125 5.5 C-3.6628125 4.7575 -3.6628125 4.7575 -3 4 C-2.34 4 -1.68 4 -1 4 C-0.67 2.68 -0.34 1.36 0 0 Z " fill="#515151" transform="translate(268,126)"/>
<path d="M0 0 C0.78375 0.04125 1.5675 0.0825 2.375 0.125 C1.32631913 2.57192202 0.36712408 4.13262186 -1.5625 6 C-3.96608849 8.4764245 -5.20446706 10.99982753 -6.625 14.125 C-7.285 14.125 -7.945 14.125 -8.625 14.125 C-9.25 11.8125 -9.25 11.8125 -9.625 9.125 C-3.65778689 0.17418033 -3.65778689 0.17418033 0 0 Z M-8.625 9.125 C-7.625 11.125 -7.625 11.125 -7.625 11.125 Z " fill="#8B8C8B" transform="translate(148.625,84.875)"/>
<path d="M0 0 C0.33 0 0.66 0 1 0 C0.85866501 1.77119803 0.71176792 3.54195287 0.5625 5.3125 C0.48128906 6.29863281 0.40007812 7.28476563 0.31640625 8.30078125 C0 11 0 11 -1 14 C-1.66 14 -2.32 14 -3 14 C-3.53229326 12.73392393 -4.05044544 11.46189588 -4.5625 10.1875 C-4.85253906 9.47980469 -5.14257812 8.77210937 -5.44140625 8.04296875 C-6 6 -6 6 -5 3 C-5 3.66 -5 4.32 -5 5 C-3.35 4.34 -1.7 3.68 0 3 C0 2.01 0 1.02 0 0 Z " fill="#525253" transform="translate(171,108)"/>
<path d="M0 0 C2 2 2 2 2.0625 5.375 C2.041875 6.57125 2.02125 7.7675 2 9 C2.309375 10.1446875 2.309375 10.1446875 2.625 11.3125 C2.74875 11.869375 2.8725 12.42625 3 13 C2.34 13.66 1.68 14.32 1 15 C-1.330374 12.669626 -1.38990587 11.81289219 -1.75 8.625 C-1.84796875 7.85414063 -1.9459375 7.08328125 -2.046875 6.2890625 C-1.99352601 3.68385332 -1.31748852 2.21946143 0 0 Z " fill="#858586" transform="translate(75,121)"/>
<path d="M0 0 C3 1 3 1 4.75 3.3125 C7.53829663 6.64296542 10.16529752 8.00890448 14 10 C14 10.33 14 10.66 14 11 C8.71379876 10.58539598 5.82609003 9.71677318 2 6 C0 3 0 3 0 0 Z " fill="#8A8A8B" transform="translate(65,138)"/>
<path d="M0 0 C0.99 0.33 1.98 0.66 3 1 C0.66666667 5.66666667 -1.66666667 10.33333333 -4 15 C-4.33 15 -4.66 15 -5 15 C-5.05399736 13.54207116 -5.09279177 12.08357288 -5.125 10.625 C-5.15980469 9.40683594 -5.15980469 9.40683594 -5.1953125 8.1640625 C-4.91765392 5.08760545 -3.13369324 4.13369324 -1 2 C-0.67 1.34 -0.34 0.68 0 0 Z " fill="#7E7E7F" transform="translate(183,71)"/>
<path d="M0 0 C0.33 0 0.66 0 1 0 C3.29612756 11.52164009 3.29612756 11.52164009 3 17 C2.34 16.67 1.68 16.34 1 16 C0.34 17.32 -0.32 18.64 -1 20 C-1.33 16.7 -1.66 13.4 -2 10 C-1.34 10 -0.68 10 0 10 C0 6.7 0 3.4 0 0 Z " fill="#656565" transform="translate(8,142)"/>
<path d="M0 0 C3.48237464 1.16079155 4.01581316 2.06868381 6.0625 5 C8.07953853 8.01628184 8.07953853 8.01628184 11 10 C11 10.66 11 11.32 11 12 C7.60538272 11.71711523 6.25867941 11.25867941 3.8125 8.8125 C1.95037885 5.92300167 0.92096522 3.30012538 0 0 Z " fill="#7F807F" transform="translate(118,138)"/>
<path d="M0 0 C1.86513897 1.86513897 3.71982023 3.73737683 5.5625 5.625 C7.75959819 8.00641642 7.75959819 8.00641642 10 9 C10 9.66 10 10.32 10 11 C6.6875 10.8125 6.6875 10.8125 3 10 C0.69094583 7.31851774 0.04742424 5.71136356 -0.1875 2.1875 C-0.125625 1.465625 -0.06375 0.74375 0 0 Z " fill="#7F7F7F" transform="translate(197,132)"/>
<path d="M0 0 C0.66 0 1.32 0 2 0 C2.433125 1.11375 2.86625 2.2275 3.3125 3.375 C4.69911119 7.17512334 4.69911119 7.17512334 8 9 C8 9.66 8 10.32 8 11 C5.31325398 10.63692621 3.44127696 10.33095772 1.25 8.6875 C-0.1880297 6.74615991 -0.70088055 5.39295557 -1 3 C-0.67 2.01 -0.34 1.02 0 0 Z " fill="#7A7B7C" transform="translate(12,156)"/>
<path d="M0 0 C3.33333333 3.33333333 6.66666667 6.66666667 10 10 C8.3125 10.8125 8.3125 10.8125 6 11 C2.65627342 8.43388425 1.19921776 6.81219549 0.1875 2.6875 C0.125625 1.800625 0.06375 0.91375 0 0 Z " fill="#828283" transform="translate(165,140)"/>
<path d="M0 0 C-1.65 1.32 -3.3 2.64 -5 4 C-3.68 4.66 -2.36 5.32 -1 6 C-4.3 6.66 -7.6 7.32 -11 8 C-10.34 7.67 -9.68 7.34 -9 7 C-8.24756445 5.07361988 -8.24756445 5.07361988 -8 3 C-8.33 2.34 -8.66 1.68 -9 1 C-2.25 -1.125 -2.25 -1.125 0 0 Z " fill="#5F5F60" transform="translate(236,109)"/>
<path d="M0 0 C1.875 0.25 1.875 0.25 4 1 C6.35535899 4.17973464 6.17494335 7.15124621 6 11 C5.01 11.33 4.02 11.66 3 12 C2.86722656 11.38511719 2.73445313 10.77023438 2.59765625 10.13671875 C2.42105469 9.32847656 2.24445312 8.52023438 2.0625 7.6875 C1.88847656 6.88699219 1.71445312 6.08648437 1.53515625 5.26171875 C1.00113841 2.854599 1.00113841 2.854599 0 0 Z " fill="#8C8D8D" transform="translate(25,125)"/>
<path d="M0 0 C1.32 0.66 2.64 1.32 4 2 C2.88200014 3.33920838 1.75538103 4.67122556 0.625 6 C-0.00148438 6.7425 -0.62796875 7.485 -1.2734375 8.25 C-1.84320313 8.8275 -2.41296875 9.405 -3 10 C-3.66 10 -4.32 10 -5 10 C-3.375 3.25 -3.375 3.25 0 1 C0 0.67 0 0.34 0 0 Z " fill="#9E9F9F" transform="translate(71,107)"/>
<path d="M0 0 C0.99 0.33 1.98 0.66 3 1 C2.01 4.3 1.02 7.6 0 11 C-0.66 11 -1.32 11 -2 11 C-2.05399736 9.54207116 -2.09279177 8.08357288 -2.125 6.625 C-2.15980469 5.40683594 -2.15980469 5.40683594 -2.1953125 4.1640625 C-2 2 -2 2 0 0 Z " fill="#909191" transform="translate(9,116)"/>
<path d="M0 0 C2.86697492 1.28519565 4.97607712 2.57129254 7 5 C7 5.66 7 6.32 7 7 C8.32 7.33 9.64 7.66 11 8 C7.76999584 8.22022756 5.60024146 8.3082321 2.6875 6.8125 C0.62139742 4.59335278 0.32157204 2.97454134 0 0 Z " fill="#9D9E9E" transform="translate(215,121)"/>
<path d="M0 0 C1.65 0 3.3 0 5 0 C3.68 2.64 2.36 5.28 1 8 C0.34 8 -0.32 8 -1 8 C-1.93065133 5.39417629 -2.14917407 4.35801776 -1.0625 1.75 C-0.711875 1.1725 -0.36125 0.595 0 0 Z " fill="#9C9C9C" transform="translate(113,97)"/>
<path d="M0 0 C0.66 0 1.32 0 2 0 C3.01866229 1.65532623 4.01810813 3.32260138 5 5 C5.66 5.33 6.32 5.66 7 6 C7 6.66 7 7.32 7 8 C2.25 7.25 2.25 7.25 0 5 C-0.125 2.375 -0.125 2.375 0 0 Z " fill="#7E7F7F" transform="translate(99,136)"/>
<path d="M0 0 C1.98 0.495 1.98 0.495 4 1 C3.01 3.97 2.02 6.94 1 10 C0.34 10 -0.32 10 -1 10 C-1.08004482 6.4780279 -1.04005702 3.38018531 0 0 Z " fill="#9A9B9A" transform="translate(45,112)"/>
<path d="M0 0 C3.05402088 1.52701044 3.65869481 3.95157912 5 7 C5 7.99 5 8.98 5 10 C1.125 8.125 1.125 8.125 0 7 C-0.04092937 4.66702567 -0.04241723 2.33294775 0 0 Z " fill="#7D7F7E" transform="translate(136,137)"/>
<path d="M0 0 C0.33 0.99 0.66 1.98 1 3 C-3.455 6.96 -3.455 6.96 -8 11 C-8 8 -8 8 -6.25 5.95703125 C-5.5075 5.24933594 -4.765 4.54164062 -4 3.8125 C-2.88625 2.73935547 -2.88625 2.73935547 -1.75 1.64453125 C-1.1725 1.10183594 -0.595 0.55914062 0 0 Z " fill="#8E8E8E" transform="translate(35,62)"/>
<path d="M0 0 C0.66 0 1.32 0 2 0 C3.2890625 1.53125 3.2890625 1.53125 4.625 3.5 C5.07101562 4.1496875 5.51703125 4.799375 5.9765625 5.46875 C6.31429688 5.9740625 6.65203125 6.479375 7 7 C4.625 7.1875 4.625 7.1875 2 7 C0 4 0 4 0 0 Z " fill="#7F7F80" transform="translate(253,111)"/>
<path d="M0 0 C0.99 0 1.98 0 3 0 C2.34 3.3 1.68 6.6 1 10 C0.34 10 -0.32 10 -1 10 C-1.125 2.25 -1.125 2.25 0 0 Z " fill="#7C7D7E" transform="translate(97,104)"/>
<path d="M0 0 C0.99 0 1.98 0 3 0 C2.43174347 5.54050113 0.37113483 10.03715966 -2 15 C-3.39381709 10.81854874 -1.70888733 8.96461861 0 5 C0.25390222 2.20659843 0.25390222 2.20659843 0 0 Z " fill="#A0A0A0" transform="translate(233,159)"/>
<path d="M0 0 C2 1 2 1 3 2 C3.04063832 3.66617115 3.042721 5.33388095 3 7 C1.68 7.33 0.36 7.66 -1 8 C-1.04241723 5.66705225 -1.04092937 3.33297433 -1 1 C-0.67 0.67 -0.34 0.34 0 0 Z " fill="#AAAAAA" transform="translate(90,132)"/>
<path d="M0 0 C2.16874252 0.50603992 3.99967627 0.99983813 6 2 C6.625 4.0625 6.625 4.0625 7 6 C5.35 6 3.7 6 2 6 C1.34 4.02 0.68 2.04 0 0 Z " fill="#A3A4A4" transform="translate(80,115)"/>
<path d="M0 0 C1.9375 0.75 1.9375 0.75 4 2 C4.625 4.0625 4.625 4.0625 5 6 C5.66 6.33 6.32 6.66 7 7 C3.76509224 6.44225728 2.02144994 5.62788492 0 3 C0 2.01 0 1.02 0 0 Z " fill="#A7A8A8" transform="translate(211,88)"/>
<path d="M0 0 C0.66 0 1.32 0 2 0 C2.66 2.31 3.32 4.62 4 7 C2.68 6.67 1.36 6.34 0 6 C-1.125 2.25 -1.125 2.25 0 0 Z " fill="#949494" transform="translate(255,125)"/>
<path d="M0 0 C0.66 0 1.32 0 2 0 C2.33 2.64 2.66 5.28 3 8 C2.34 7.67 1.68 7.34 1 7 C0.34 7.66 -0.32 8.32 -1 9 C-0.67 6.03 -0.34 3.06 0 0 Z " fill="#808182" transform="translate(185,97)"/>
<path d="M0 0 C1.76462683 3.08809695 2 4.23312136 2 8 C1.34 8 0.68 8 0 8 C0 7.34 0 6.68 0 6 C-0.66 6 -1.32 6 -2 6 C-2.33 4.68 -2.66 3.36 -3 2 C-2.34 2 -1.68 2 -1 2 C-0.67 1.34 -0.34 0.68 0 0 Z " fill="#3A3A3C" transform="translate(260,79)"/>
<path d="M0 0 C2.04119788 1.61594832 4.04072937 3.2856382 6 5 C6 5.66 6 6.32 6 7 C4.35 6.67 2.7 6.34 1 6 C0.67 4.02 0.34 2.04 0 0 Z " fill="#9C9C9C" transform="translate(49,147)"/>
<path d="M0 0 C0.33 0.66 0.66 1.32 1 2 C1.66 2 2.32 2 3 2 C3 3.65 3 5.3 3 7 C2.01 7.33 1.02 7.66 0 8 C-0.79953138 4.71303767 -1.09658936 3.28976808 0 0 Z M0 3 C1 5 1 5 1 5 Z " fill="#939494" transform="translate(140,91)"/>
<path d="M0 0 C0.99 0.33 1.98 0.66 3 1 C1.84826645 3.46800047 0.95216435 5.04783565 -1 7 C-1.99 6.67 -2.98 6.34 -4 6 C-3 4 -3 4 -1 2 C-0.67 1.34 -0.34 0.68 0 0 Z " fill="#989898" transform="translate(183,71)"/>
<path d="M0 0 C0.66 0.33 1.32 0.66 2 1 C2 2.98 2 4.96 2 7 C0.68 7.33 -0.64 7.66 -2 8 C-1.34 5.36 -0.68 2.72 0 0 Z " fill="#767777" transform="translate(243,115)"/>
<path d="M0 0 C0.66 0 1.32 0 2 0 C2.08226668 3.04386724 1.97608217 5.07175348 1 8 C0.01 7.67 -0.98 7.34 -2 7 C-1.34 4.69 -0.68 2.38 0 0 Z " fill="#9D9E9E" transform="translate(236,81)"/>
<path d="M0 0 C0.66 0 1.32 0 2 0 C2.625 2.375 2.625 2.375 3 5 C2.34 5.66 1.68 6.32 1 7 C0.34 7 -0.32 7 -1 7 C-0.67 4.69 -0.34 2.38 0 0 Z " fill="#A1A1A1" transform="translate(12,156)"/>
<path d="M0 0 C0.99 0.33 1.98 0.66 3 1 C4.1875 3.5625 4.1875 3.5625 5 6 C4.34 6.66 3.68 7.32 3 8 C0 2.25 0 2.25 0 0 Z " fill="#9B9C9C" transform="translate(118,138)"/>
<path d="M0 0 C2.52588702 2.36292656 3.88820837 3.66462511 5 7 C3.125 6.8125 3.125 6.8125 1 6 C-0.25 3.4375 -0.25 3.4375 -1 1 C-0.67 0.67 -0.34 0.34 0 0 Z " fill="#858686" transform="translate(215,106)"/>
<path d="M0 0 C2 2 2 2 2.125 5.125 C2.08375 6.07375 2.0425 7.0225 2 8 C1.01 8.495 1.01 8.495 0 9 C-0.87890625 2.84765625 -0.87890625 2.84765625 -1 1 C-0.67 0.67 -0.34 0.34 0 0 Z " fill="#C3C4C4" transform="translate(75,121)"/>
<path d="" fill="#FEFEFE" transform="translate(0,0)"/>
<path d="" fill="#FEFEFE" transform="translate(0,0)"/>
<path d="" fill="#FEFEFE" transform="translate(0,0)"/>
<path d="" fill="#FEFEFE" transform="translate(0,0)"/>
<path d="" fill="#FEFEFE" transform="translate(0,0)"/>
<path d="" fill="#FEFEFE" transform="translate(0,0)"/>
</svg>
